<?xml version="1.0" encoding="UTF-8" standalone="no"?>
<!-- Created with Inkscape (http://www.inkscape.org/) -->

<svg
   xmlns:dc="http://purl.org/dc/elements/1.1/"
   xmlns:cc="http://creativecommons.org/ns#"
   xmlns:rdf="http://www.w3.org/1999/02/22-rdf-syntax-ns#"
   xmlns:svg="http://www.w3.org/2000/svg"
   xmlns="http://www.w3.org/2000/svg"
   xmlns:sodipodi="http://sodipodi.sourceforge.net/DTD/sodipodi-0.dtd"
   xmlns:inkscape="http://www.inkscape.org/namespaces/inkscape"
   width="70.570976mm"
   height="52.358009mm"
   viewBox="0 0 250.05464 185.52051"
   id="svg2"
   version="1.1"
   inkscape:version="0.91 r13725"
   sodipodi:docname="logo.svg">
  <defs
     id="defs4" />
  <sodipodi:namedview
     id="base"
     pagecolor="#969696"
     bordercolor="#666666"
     borderopacity="1.0"
     inkscape:pageopacity="0"
     inkscape:pageshadow="2"
     inkscape:zoom="3.959798"
     inkscape:cx="129.34261"
     inkscape:cy="73.169545"
     inkscape:document-units="px"
     inkscape:current-layer="layer1"
     showgrid="false"
     showguides="true"
     inkscape:guide-bbox="true"
     inkscape:window-width="2495"
     inkscape:window-height="1416"
     inkscape:window-x="65"
     inkscape:window-y="24"
     inkscape:window-maximized="1"
     fit-margin-top="0"
     fit-margin-left="0"
     fit-margin-right="0"
     fit-margin-bottom="0"
     showborder="false">
    <sodipodi:guide
       position="-0.13959337,136.95648"
       orientation="1,0"
       id="guide4152" />
    <sodipodi:guide
       position="249.87317,160.69507"
       orientation="1,0"
       id="guide4154" />
    <sodipodi:guide
       position="-389.04834,110.69251"
       orientation="1,0"
       id="guide4177" />
    <sodipodi:guide
       position="124.61426,181.40319"
       orientation="1,0"
       id="guide4179" />
    <sodipodi:guide
       position="144.81731,182.41335"
       orientation="0,1"
       id="guide4181" />
    <sodipodi:guide
       position="47.32143,85.357115"
       orientation="0,1"
       id="guide4183" />
    <sodipodi:guide
       position="64.510179,249.08342"
       orientation="1,0"
       id="guide4185" />
    <sodipodi:guide
       position="184.71833,215.24331"
       orientation="1,0"
       id="guide4187" />
    <sodipodi:guide
       position="99.360441,228.37529"
       orientation="1,0"
       id="guide4189" />
    <sodipodi:guide
       position="149.363,193.01995"
       orientation="1,0"
       id="guide4191" />
    <sodipodi:guide
       position="59.342579,167.52047"
       orientation="1,0"
       id="guide4196" />
    <sodipodi:guide
       position="189.52116,162.16332"
       orientation="1,0"
       id="guide4198" />
    <sodipodi:guide
       position="145.23545,177.87761"
       orientation="0,1"
       id="guide4200" />
    <sodipodi:guide
       position="4.5211469,143.05618"
       orientation="1,0"
       id="guide4202" />
    <sodipodi:guide
       position="244.69973,122.87761"
       orientation="1,0"
       id="guide4204" />
    <sodipodi:guide
       position="51.250002,90.357115"
       orientation="0,1"
       id="guide4206" />
    <sodipodi:guide
       position="131.30688,157.87761"
       orientation="0,1"
       id="guide4208" />
    <sodipodi:guide
       position="94.342581,190.55618"
       orientation="1,0"
       id="guide4225" />
    <sodipodi:guide
       position="64.510179,70.357116"
       orientation="0,1"
       id="guide4242" />
    <sodipodi:guide
       position="110.7143,38.214258"
       orientation="0,1"
       id="guide4244" />
    <sodipodi:guide
       position="128.39287,23.214258"
       orientation="0,1"
       id="guide4246" />
  </sodipodi:namedview>
  <metadata
     id="metadata7">
    <rdf:RDF>
      <cc:Work
         rdf:about="">
        <dc:format>image/svg+xml</dc:format>
        <dc:type
           rdf:resource="http://purl.org/dc/dcmitype/StillImage" />
        <dc:title></dc:title>
      </cc:Work>
    </rdf:RDF>
  </metadata>
  <g
     inkscape:label="Layer 1"
     inkscape:groupmode="layer"
     id="layer1"
     transform="translate(-250.65742,-249.71931)">
    <g
       style="font-style:normal;font-weight:normal;font-size:42.58018494px;line-height:125%;font-family:sans-serif;letter-spacing:0px;word-spacing:0px;fill:#323232;fill-opacity:1;stroke:none;stroke-width:1px;stroke-linecap:butt;stroke-linejoin:miter;stroke-opacity:1"
       id="text4136">
      <path
         d="m 268.12195,391.22269 q 4.65721,0 8.94018,-2.93154 l 0,6.42445 q -4.42851,2.30781 -9.5847,2.30781 -7.79667,0 -12.30834,-4.30376 -4.51167,-4.32455 -4.51167,-11.78855 0,-7.46401 4.49088,-11.78856 4.51167,-4.32455 12.32913,-4.32455 5.15619,0 9.5847,2.30781 l 0,6.42445 q -4.32455,-2.93154 -8.94018,-2.93154 -4.36613,0 -6.7779,2.78601 -2.41177,2.76521 -2.41177,7.52638 0,4.76116 2.41177,7.52638 2.41177,2.76521 6.7779,2.76521 z"
         style="font-style:normal;font-variant:normal;font-weight:bold;font-stretch:normal;font-size:42.58018494px;line-height:125%;font-family:Waree;-inkscape-font-specification:'Waree, Bold';text-align:start;writing-mode:lr-tb;text-anchor:start;fill:#323232;fill-opacity:1"
         id="path4249" />
      <path
         d="m 302.55202,390.76529 -12.51624,0 -1.97516,5.65518 -8.04616,0 11.49748,-31.04112 9.54312,0 11.49748,31.04112 -8.04616,0 -1.95436,-5.65518 z m -10.5203,-5.75914 8.50356,0 -4.24138,-12.34991 -4.26218,12.34991 z"
         style="font-style:normal;font-variant:normal;font-weight:bold;font-stretch:normal;font-size:42.58018494px;line-height:125%;font-family:Waree;-inkscape-font-specification:'Waree, Bold';text-align:start;writing-mode:lr-tb;text-anchor:start;fill:#323232;fill-opacity:1"
         id="path4251" />
      <path
         d="m 338.93646,367.91586 q 3.2642,2.53652 3.2642,7.58876 0,5.05224 -3.2642,7.60954 -3.26421,2.53652 -9.00255,2.53652 l -5.28094,0 0,10.76979 -8.00458,0 0,-31.04112 13.28552,0 q 5.75913,0 9.00255,2.53651 z m -4.98987,7.58876 q 0,-2.12069 -1.28905,-3.22262 -1.26826,-1.10193 -3.57607,-1.10193 l -4.4285,0 0,8.66989 4.4285,0 q 2.30781,0 3.57607,-1.10193 1.28905,-1.12272 1.28905,-3.24341 z"
         style="font-style:normal;font-variant:normal;font-weight:bold;font-stretch:normal;font-size:42.58018494px;line-height:125%;font-family:Waree;-inkscape-font-specification:'Waree, Bold';text-align:start;writing-mode:lr-tb;text-anchor:start;fill:#323232;fill-opacity:1"
         id="path4253" />
      <path
         d="m 358.58405,364.81799 q 5.1562,0 10.85296,1.53854 l 0,6.56999 q -5.15619,-2.30781 -9.5847,-2.30781 -3.0355,0 -4.32455,0.85243 -1.28905,0.83165 -1.28905,2.39098 0,1.30984 0.99797,1.99595 0.99798,0.66531 3.285,1.14351 l 3.40974,0.6861 q 4.98987,0.99798 7.2561,3.09788 2.28702,2.07911 2.28702,6.09179 0,5.32253 -3.16025,7.73429 -3.16025,2.41177 -9.18967,2.41177 -5.88388,0 -11.87172,-2.22465 l 0,-6.7571 q 6.02942,3.18103 11.10245,3.18103 1.6425,0 2.76522,-0.31186 1.14351,-0.33266 1.68408,-0.87323 0.54057,-0.56136 0.74848,-1.08114 0.20791,-0.51977 0.20791,-1.10192 0,-1.55934 -1.08114,-2.32861 -1.06035,-0.76927 -3.63844,-1.33063 l -3.09788,-0.68611 q -4.4285,-0.97718 -6.69473,-3.07708 -2.26623,-2.0999 -2.26623,-5.98784 0,-4.80274 3.07708,-7.21451 3.07708,-2.41177 8.52435,-2.41177 z"
         style="font-style:normal;font-variant:normal;font-weight:bold;font-stretch:normal;font-size:42.58018494px;line-height:125%;font-family:Waree;-inkscape-font-specification:'Waree, Bold';text-align:start;writing-mode:lr-tb;text-anchor:start;fill:#323232;fill-opacity:1"
         id="path4255" />
      <path
         d="m 374.82191,365.37935 28.60856,0 0,6.05021 -10.2916,0 0,24.99091 -8.00457,0 0,-24.99091 -10.31239,0 0,-6.05021 z"
         style="font-style:normal;font-variant:normal;font-weight:bold;font-stretch:normal;font-size:42.58018494px;line-height:125%;font-family:Waree;-inkscape-font-specification:'Waree, Bold';text-align:start;writing-mode:lr-tb;text-anchor:start;fill:#323232;fill-opacity:1"
         id="path4257" />
      <path
         d="m 428.23425,385.04774 q 0.45741,-1.85041 0.45741,-4.11664 0,-2.26623 -0.45741,-4.11664 -0.4574,-1.85041 -1.37221,-3.24341 -0.91481,-1.4138 -2.41177,-2.18307 -1.49696,-0.76927 -3.47212,-0.76927 -2.59888,0 -4.36613,1.37221 -1.74645,1.35142 -2.53651,3.61765 -0.79006,2.26623 -0.79006,5.32253 0,4.678 1.91278,7.4848 1.93357,2.80679 5.77992,2.80679 1.97516,0 3.47212,-0.76927 1.49696,-0.76927 2.41177,-2.16227 0.91481,-1.4138 1.37221,-3.24341 z m -18.98228,7.73429 q -4.24138,-4.24139 -4.24138,-11.85093 0,-7.60955 4.24138,-11.85093 4.26218,-4.26218 11.72618,-4.26218 7.4848,0 11.72619,4.24139 4.24138,4.24138 4.24138,11.87172 0,7.60954 -4.26217,11.85093 -4.24139,4.24138 -11.7054,4.24138 -7.464,0 -11.72618,-4.24138 z"
         style="font-style:normal;font-variant:normal;font-weight:bold;font-stretch:normal;font-size:42.58018494px;line-height:125%;font-family:Waree;-inkscape-font-specification:'Waree, Bold';text-align:start;writing-mode:lr-tb;text-anchor:start;fill:#323232;fill-opacity:1"
         id="path4259" />
      <path
         d="m 442.97515,365.37935 8.94017,0 11.28958,21.29009 0,-21.29009 7.58875,0 0,31.04112 -8.94018,0 -11.28957,-21.29009 0,21.29009 -7.58875,0 0,-31.04112 z"
         style="font-style:normal;font-variant:normal;font-weight:bold;font-stretch:normal;font-size:42.58018494px;line-height:125%;font-family:Waree;-inkscape-font-specification:'Waree, Bold';text-align:start;writing-mode:lr-tb;text-anchor:start;fill:#323232;fill-opacity:1"
         id="path4261" />
      <path
         d="m 478.65269,365.37935 21.60195,0 0,6.05021 -13.59738,0 0,5.77993 12.78653,0 0,6.05021 -12.78653,0 0,7.11056 14.05479,0 0,6.05021 -22.05936,0 0,-31.04112 z"
         style="font-style:normal;font-variant:normal;font-weight:bold;font-stretch:normal;font-size:42.58018494px;line-height:125%;font-family:Waree;-inkscape-font-specification:'Waree, Bold';text-align:start;writing-mode:lr-tb;text-anchor:start;fill:#323232;fill-opacity:1"
         id="path4263" />
    </g>
    <g
       style="font-style:normal;font-variant:normal;font-weight:normal;font-stretch:normal;font-size:30.67499924px;line-height:125%;font-family:Waree;-inkscape-font-specification:'Waree, Normal';text-align:start;letter-spacing:0px;word-spacing:0px;writing-mode:lr-tb;text-anchor:start;fill:#ffffff;fill-opacity:1;stroke:none;stroke-width:1px;stroke-linecap:butt;stroke-linejoin:miter;stroke-opacity:1"
       id="text4148">
      <path
         d="m 262.42632,412.03885 q 4.01411,0 7.11456,2.12688 l 0,3.19032 q -3.02556,-2.83085 -6.93482,-2.83085 -3.92425,0 -5.91632,2.39649 -1.99208,2.3815 -1.99208,6.72513 0,4.32865 1.99208,6.72513 1.99207,2.38151 5.91632,2.38151 3.90926,0 6.93482,-2.83085 l 0,3.16037 q -3.19032,2.15683 -7.11456,2.15683 -5.10751,0 -8.01324,-3.10045 -2.90574,-3.10045 -2.90574,-8.49254 0,-5.39209 2.89076,-8.49254 2.90574,-3.11543 8.02822,-3.11543 z"
         style="font-style:normal;font-variant:normal;font-weight:normal;font-stretch:normal;font-size:30.67499924px;line-height:125%;font-family:Waree;-inkscape-font-specification:'Waree, Normal';text-align:start;writing-mode:lr-tb;text-anchor:start;fill:#ffffff;fill-opacity:1"
         id="path4266" />
      <path
         d="m 281.71802,415.42388 -4.10398,11.12868 8.22294,0 -4.11896,-11.12868 z m -1.7075,-2.98062 3.42997,0 8.5225,22.36219 -3.14539,0 -2.03701,-5.73658 -10.08021,0 -2.03701,5.73658 -3.19032,0 8.53747,-22.36219 z"
         style="font-style:normal;font-variant:normal;font-weight:normal;font-stretch:normal;font-size:30.67499924px;line-height:125%;font-family:Waree;-inkscape-font-specification:'Waree, Normal';text-align:start;writing-mode:lr-tb;text-anchor:start;fill:#ffffff;fill-opacity:1"
         id="path4268" />
      <path
         d="m 309.65204,418.88381 q 0,2.17181 -1.00353,3.54979 -1.00353,1.363 -2.83085,1.88723 1.91719,0.64406 3.74451,4.37359 l 3.0705,6.11103 -3.25024,0 -2.8608,-5.73658 q -1.03348,-2.09693 -2.08195,-2.90574 -1.03348,-0.80881 -2.90573,-0.80881 l -3.29517,0 0,9.45113 -3.02556,0 0,-22.36219 6.82998,0 q 3.71455,0 5.66169,1.55771 1.94715,1.54274 1.94715,4.88284 z m -3.19032,0 q 0,-1.99208 -1.13833,-2.96565 -1.13833,-0.98855 -3.28019,-0.98855 l -3.80442,0 0,7.93835 3.80442,0 q 2.14186,0 3.28019,-0.98855 1.13833,-1.00352 1.13833,-2.9956 z"
         style="font-style:normal;font-variant:normal;font-weight:normal;font-stretch:normal;font-size:30.67499924px;line-height:125%;font-family:Waree;-inkscape-font-specification:'Waree, Normal';text-align:start;writing-mode:lr-tb;text-anchor:start;fill:#ffffff;fill-opacity:1"
         id="path4270" />
      <path
         d="m 316.54193,412.44326 14.13926,0 0,2.54626 -11.1137,0 0,6.62029 10.64938,0 0,2.54626 -10.64938,0 0,8.10312 11.3833,0 0,2.54626 -14.40886,0 0,-22.36219 z"
         style="font-style:normal;font-variant:normal;font-weight:normal;font-stretch:normal;font-size:30.67499924px;line-height:125%;font-family:Waree;-inkscape-font-specification:'Waree, Normal';text-align:start;writing-mode:lr-tb;text-anchor:start;fill:#ffffff;fill-opacity:1"
         id="path4272" />
      <path
         d="m 345.71913,412.44326 4.07403,0 9.91545,18.70755 0,-18.70755 2.93569,0 0,22.36219 -4.07402,0 -9.91545,-18.70756 0,18.70756 -2.9357,0 0,-22.36219 z"
         style="font-style:normal;font-variant:normal;font-weight:normal;font-stretch:normal;font-size:30.67499924px;line-height:125%;font-family:Waree;-inkscape-font-specification:'Waree, Normal';text-align:start;writing-mode:lr-tb;text-anchor:start;fill:#ffffff;fill-opacity:1"
         id="path4274" />
      <path
         d="m 368.66547,412.44326 14.13926,0 0,2.54626 -11.1137,0 0,6.62029 10.64938,0 0,2.54626 -10.64938,0 0,8.10312 11.3833,0 0,2.54626 -14.40886,0 0,-22.36219 z"
         style="font-style:normal;font-variant:normal;font-weight:normal;font-stretch:normal;font-size:30.67499924px;line-height:125%;font-family:Waree;-inkscape-font-specification:'Waree, Normal';text-align:start;writing-mode:lr-tb;text-anchor:start;fill:#ffffff;fill-opacity:1"
         id="path4276" />
      <path
         d="m 384.97654,412.44326 18.91725,0 0,2.54626 -7.93836,0 0,19.81593 -3.04054,0 0,-19.81593 -7.93835,0 0,-2.54626 z"
         style="font-style:normal;font-variant:normal;font-weight:normal;font-stretch:normal;font-size:30.67499924px;line-height:125%;font-family:Waree;-inkscape-font-specification:'Waree, Normal';text-align:start;writing-mode:lr-tb;text-anchor:start;fill:#ffffff;fill-opacity:1"
         id="path4278" />
      <path
         d="m 404.8374,412.44326 3.05552,0 4.7031,18.90227 4.68812,-18.90227 3.40001,0 4.7031,18.90227 4.68812,-18.90227 3.0705,0 -5.61676,22.36219 -3.80442,0 -4.71808,-19.41152 -4.76301,19.41152 -3.80442,0 -5.60178,-22.36219 z"
         style="font-style:normal;font-variant:normal;font-weight:normal;font-stretch:normal;font-size:30.67499924px;line-height:125%;font-family:Waree;-inkscape-font-specification:'Waree, Normal';text-align:start;writing-mode:lr-tb;text-anchor:start;fill:#ffffff;fill-opacity:1"
         id="path4280" />
      <path
         d="m 452.57238,428.34992 q 0.79384,-2.03701 0.79384,-4.7031 0,-2.66609 -0.77886,-4.7031 -0.77886,-2.03701 -2.42644,-3.23525 -1.63261,-1.21322 -3.93922,-1.21322 -2.30662,0 -3.9542,1.19824 -1.63261,1.19824 -2.42644,3.23525 -0.79384,2.03701 -0.79384,4.71808 0,2.66609 0.77886,4.7031 0.79384,2.02203 2.44142,3.23525 1.64758,1.19825 3.9542,1.19825 2.30661,0 3.93922,-1.19825 1.6326,-1.19824 2.41146,-3.23525 z m -16.71548,-4.7031 q 0,-3.45992 1.2282,-6.08108 1.2282,-2.62115 3.57975,-4.07402 2.36653,-1.45287 5.55685,-1.45287 4.77799,0 7.54892,3.17534 2.78592,3.17534 2.78592,8.43263 0,5.27227 -2.78592,8.43263 -2.77093,3.16036 -7.54892,3.16036 -3.19032,0 -5.54187,-1.43789 -2.35155,-1.45287 -3.59473,-4.05904 -1.2282,-2.62116 -1.2282,-6.09606 z"
         style="font-style:normal;font-variant:normal;font-weight:normal;font-stretch:normal;font-size:30.67499924px;line-height:125%;font-family:Waree;-inkscape-font-specification:'Waree, Normal';text-align:start;writing-mode:lr-tb;text-anchor:start;fill:#ffffff;fill-opacity:1"
         id="path4282" />
      <path
         d="m 475.72841,418.88381 q 0,2.17181 -1.00353,3.54979 -1.00353,1.363 -2.83085,1.88723 1.91719,0.64406 3.74451,4.37359 l 3.0705,6.11103 -3.25024,0 -2.8608,-5.73658 q -1.03348,-2.09693 -2.08195,-2.90574 -1.03348,-0.80881 -2.90573,-0.80881 l -3.29517,0 0,9.45113 -3.02556,0 0,-22.36219 6.82998,0 q 3.71455,0 5.66169,1.55771 1.94715,1.54274 1.94715,4.88284 z m -3.19032,0 q 0,-1.99208 -1.13833,-2.96565 -1.13833,-0.98855 -3.28019,-0.98855 l -3.80442,0 0,7.93835 3.80442,0 q 2.14186,0 3.28019,-0.98855 1.13833,-1.00352 1.13833,-2.9956 z"
         style="font-style:normal;font-variant:normal;font-weight:normal;font-stretch:normal;font-size:30.67499924px;line-height:125%;font-family:Waree;-inkscape-font-specification:'Waree, Normal';text-align:start;writing-mode:lr-tb;text-anchor:start;fill:#ffffff;fill-opacity:1"
         id="path4284" />
      <path
         d="m 482.6183,412.44326 3.02556,0 0,9.45113 10.03527,-9.45113 3.89429,0 -11.09872,10.4247 11.89256,11.93749 -3.98416,0 -10.73924,-10.7692 0,10.7692 -3.02556,0 0,-22.36219 z"
         style="font-style:normal;font-variant:normal;font-weight:normal;font-stretch:normal;font-size:30.67499924px;line-height:125%;font-family:Waree;-inkscape-font-specification:'Waree, Normal';text-align:start;writing-mode:lr-tb;text-anchor:start;fill:#ffffff;fill-opacity:1"
         id="path4286" />
    </g>
    <path
       style="opacity:1;fill:#ffffff;fill-opacity:1;stroke:none;stroke-width:1;stroke-linejoin:miter;stroke-miterlimit:4;stroke-dasharray:none;stroke-dashoffset:0;stroke-opacity:1"
       d="m 315.1676,249.71931 120.20816,0 -35.1794,100.00511 -50.32643,0 z"
       id="rect4193"
       inkscape:connector-curvature="0"
       sodipodi:nodetypes="ccccc" />
  </g>
</svg>
